<?xml version="1.0" standalone="no"?>
<!DOCTYPE svg PUBLIC "-//W3C//DTD SVG 20010904//EN"
 "http://www.w3.org/TR/2001/REC-SVG-20010904/DTD/svg10.dtd">
<svg version="1.0" xmlns="http://www.w3.org/2000/svg"
 width="144.000000pt" height="144.000000pt" viewBox="0 0 144.000000 144.000000"
 preserveAspectRatio="xMidYMid meet">
<metadata>
Created by potrace 1.16, written by Peter Selinger 2001-2019
</metadata>
<g transform="translate(0.000000,144.000000) scale(0.100000,-0.100000)"
fill="#000000" stroke="none">
<path d="M547 1088 c43 -47 145 -276 207 -465 l27 -82 62 36 c117 68 312 201
355 242 62 61 56 113 -17 150 -96 49 -484 141 -596 141 l-58 0 20 -22z m175
-45 c24 -22 23 -58 -3 -76 -27 -19 -58 -10 -70 20 -19 52 33 93 73 56z"/>
<path d="M439 1069 c-47 -47 -187 -382 -239 -573 -36 -130 -17 -151 146 -167
169 -16 378 1 412 34 17 17 18 89 3 130 l-10 26 -53 -24 c-82 -38 -124 -31
-153 26 -52 100 -105 492 -75 550 15 26 -4 25 -31 -2z"/>
</g>
</svg>
